<?xml version="1.0" encoding="us-ascii" standalone="no"?><svg xmlns="http://www.w3.org/2000/svg" xmlns:xlink="http://www.w3.org/1999/xlink" contentStyleType="text/css" height="463px" preserveAspectRatio="none" style="width:1456px;height:463px;background:#FFFFFF;" version="1.1" viewBox="0 0 1456 463" width="1456px" zoomAndPan="magnify"><defs/><g><!--cluster UEAPI--><g id="cluster_UEAPI"><path d="M179.5,208 L221.5,208 A3.75,3.75 0 0 1 224,210.5 L231,233.1201 L968.5,233.1201 A2.5,2.5 0 0 1 971,235.6201 L971,453.5 A2.5,2.5 0 0 1 968.5,456 L179.5,456 A2.5,2.5 0 0 1 177,453.5 L177,210.5 A2.5,2.5 0 0 1 179.5,208 " fill="none" style="stroke:#000000;stroke-width:1.5;"/><line style="stroke:#000000;stroke-width:1.5;" x1="177" x2="231" y1="233.1201" y2="233.1201"/><text fill="#000000" font-family="sans-serif" font-size="14" font-weight="bold" lengthAdjust="spacing" textLength="41" x="181" y="226.0439">UEAPI</text></g><!--cluster AbilitySystem--><g id="cluster_AbilitySystem"><path d="M997.5,30.5 L1090.5,30.5 A3.75,3.75 0 0 1 1093,33 L1100,55.6201 L1396.5,55.6201 A2.5,2.5 0 0 1 1399,58.1201 L1399,345.5 A2.5,2.5 0 0 1 1396.5,348 L997.5,348 A2.5,2.5 0 0 1 995,345.5 L995,33 A2.5,2.5 0 0 1 997.5,30.5 " fill="none" style="stroke:#000000;stroke-width:1.5;"/><line style="stroke:#000000;stroke-width:1.5;" x1="995" x2="1100" y1="55.6201" y2="55.6201"/><text fill="#000000" font-family="sans-serif" font-size="14" font-weight="bold" lengthAdjust="spacing" textLength="92" x="999" y="48.5439">AbilitySystem</text></g><!--cluster Character--><g id="cluster_Character"><path d="M8.5,6 L78.5,6 A3.75,3.75 0 0 1 81,8.5 L88,31.1201 L519.5,31.1201 A2.5,2.5 0 0 1 522,33.6201 L522,181.5 A2.5,2.5 0 0 1 519.5,184 L8.5,184 A2.5,2.5 0 0 1 6,181.5 L6,8.5 A2.5,2.5 0 0 1 8.5,6 " fill="none" style="stroke:#000000;stroke-width:1.5;"/><line style="stroke:#000000;stroke-width:1.5;" x1="6" x2="88" y1="31.1201" y2="31.1201"/><text fill="#000000" font-family="sans-serif" font-size="14" font-weight="bold" lengthAdjust="spacing" textLength="69" x="10" y="24.0439">Character</text></g><!--class APawn--><g id="elem_APawn"><rect codeLine="4" fill="#F1F1F1" height="67.1201" id="APawn" rx="2.5" ry="2.5" style="stroke:#181818;stroke-width:0.5;" width="151" x="803.5" y="255.5"/><ellipse cx="853.25" cy="271.5" fill="#ADD1B2" rx="11" ry="11" style="stroke:#181818;stroke-width:1.0;"/><path d="M851.8281,276.8594 Q849.9688,276.8594 848.875,275.4688 Q847.7813,274.0781 847.7813,271.0938 Q847.7813,268.5625 848.9453,266.9063 Q850.1094,265.25 852.0938,265.25 Q853.5625,265.25 854.0313,265.375 Q854.5,265.5781 854.5,265.5781 Q854.5,265.5781 854.5,265.5078 Q854.5,265.4375 855.1094,264.5156 L856.1563,268.1719 L854.8281,268.5781 Q854.3594,267.0313 853.6953,266.3672 Q853.0313,265.7031 851.9688,265.7031 Q851.5781,265.7031 850.8125,267.2344 Q850.0469,268.7656 850.0469,271.0156 Q850.0469,273.4844 850.7109,274.875 Q851.375,276.2656 851.9063,276.2656 Q852.9688,276.2656 853.7266,275.5 Q854.4844,274.7344 854.8281,273.0781 L856.1563,273.6719 Q855.8281,275.0781 854.9297,275.9688 Q854.0313,276.8594 851.8281,276.8594 Z " fill="#000000"/><text fill="#000000" font-family="sans-serif" font-size="14" lengthAdjust="spacing" textLength="43" x="873.75" y="277.9839">APawn</text><line style="stroke:#181818;stroke-width:0.5;" x1="804.5" x2="953.5" y1="287.5" y2="287.5"/><line style="stroke:#181818;stroke-width:0.5;" x1="804.5" x2="953.5" y1="295.5" y2="295.5"/><ellipse cx="814.5" cy="310.5601" fill="#84BE84" rx="3" ry="3" style="stroke:#038048;stroke-width:1.0;"/><text fill="#000000" font-family="sans-serif" font-size="14" lengthAdjust="spacing" textLength="125" x="823.5" y="315.5439">void PossessedBy()</text></g><!--class ACharacter--><g id="elem_ACharacter"><rect codeLine="8" fill="#F1F1F1" height="48" id="ACharacter" rx="2.5" ry="2.5" style="stroke:#181818;stroke-width:0.5;" width="104" x="510" y="392"/><ellipse cx="525" cy="408" fill="#ADD1B2" rx="11" ry="11" style="stroke:#181818;stroke-width:1.0;"/><path d="M523.5781,413.3594 Q521.7188,413.3594 520.625,411.9688 Q519.5313,410.5781 519.5313,407.5938 Q519.5313,405.0625 520.6953,403.4063 Q521.8594,401.75 523.8438,401.75 Q525.3125,401.75 525.7813,401.875 Q526.25,402.0781 526.25,402.0781 Q526.25,402.0781 526.25,402.0078 Q526.25,401.9375 526.8594,401.0156 L527.9063,404.6719 L526.5781,405.0781 Q526.1094,403.5313 525.4453,402.8672 Q524.7813,402.2031 523.7188,402.2031 Q523.3281,402.2031 522.5625,403.7344 Q521.7969,405.2656 521.7969,407.5156 Q521.7969,409.9844 522.4609,411.375 Q523.125,412.7656 523.6563,412.7656 Q524.7188,412.7656 525.4766,412 Q526.2344,411.2344 526.5781,409.5781 L527.9063,410.1719 Q527.5781,411.5781 526.6797,412.4688 Q525.7813,413.3594 523.5781,413.3594 Z " fill="#000000"/><text fill="#000000" font-family="sans-serif" font-size="14" lengthAdjust="spacing" textLength="72" x="539" y="414.4839">ACharacter</text><line style="stroke:#181818;stroke-width:0.5;" x1="511" x2="613" y1="424" y2="424"/><line style="stroke:#181818;stroke-width:0.5;" x1="511" x2="613" y1="432" y2="432"/></g><!--class IAbilitySystemInterface--><g id="elem_IAbilitySystemInterface"><rect codeLine="10" fill="#F1F1F1" height="67.1201" id="IAbilitySystemInterface" rx="2.5" ry="2.5" style="stroke:#181818;stroke-width:0.5;" width="389" x="193.5" y="255.5"/><ellipse cx="312.25" cy="271.5" fill="#B4A7E5" rx="11" ry="11" style="stroke:#181818;stroke-width:1.0;"/><path d="M308.8438,265.7813 L308.8438,265.375 L315.1563,265.375 L315.1563,265.7813 L312.625,265.7813 Q312.625,265.7813 312.7734,265.9141 Q312.9219,266.0469 312.9219,266.3125 L312.9219,275.7969 Q312.9219,276.0625 313.1406,276.1953 Q313.3594,276.3281 313.3594,276.3281 L315.1563,276.3281 L315.1563,276.7344 L308.8438,276.7344 L308.8438,276.3281 L310.375,276.3281 Q310.7031,276.3281 310.8359,276.1953 Q310.9688,276.0625 310.9688,275.7969 L310.9688,266.3125 Q310.9688,266.0469 310.8359,265.9141 Q310.7031,265.7813 310.375,265.7813 L308.8438,265.7813 Z " fill="#000000"/><text fill="#000000" font-family="sans-serif" font-size="14" font-style="italic" lengthAdjust="spacing" textLength="143" x="332.75" y="277.9839">IAbilitySystemInterface</text><line style="stroke:#181818;stroke-width:0.5;" x1="194.5" x2="581.5" y1="287.5" y2="287.5"/><line style="stroke:#181818;stroke-width:0.5;" x1="194.5" x2="581.5" y1="295.5" y2="295.5"/><ellipse cx="204.5" cy="310.5601" fill="#84BE84" rx="3" ry="3" style="stroke:#038048;stroke-width:1.0;"/><text fill="#000000" font-family="sans-serif" font-size="14" lengthAdjust="spacing" textLength="363" x="213.5" y="315.5439">UAbilitySystemComponent* GetAbilitySystemComponent()</text></g><!--class UGameplayAbility--><g id="elem_UGameplayAbility"><rect codeLine="14" fill="#F1F1F1" height="86.2402" id="UGameplayAbility" rx="2.5" ry="2.5" style="stroke:#181818;stroke-width:0.5;" width="151" x="617.5" y="246"/><ellipse cx="636.55" cy="262" fill="#ADD1B2" rx="11" ry="11" style="stroke:#181818;stroke-width:1.0;"/><path d="M635.1281,267.3594 Q633.2688,267.3594 632.175,265.9688 Q631.0813,264.5781 631.0813,261.5938 Q631.0813,259.0625 632.2453,257.4063 Q633.4094,255.75 635.3938,255.75 Q636.8625,255.75 637.3313,255.875 Q637.8,256.0781 637.8,256.0781 Q637.8,256.0781 637.8,256.0078 Q637.8,255.9375 638.4094,255.0156 L639.4563,258.6719 L638.1281,259.0781 Q637.6594,257.5313 636.9953,256.8672 Q636.3313,256.2031 635.2688,256.2031 Q634.8781,256.2031 634.1125,257.7344 Q633.3469,259.2656 633.3469,261.5156 Q633.3469,263.9844 634.0109,265.375 Q634.675,266.7656 635.2063,266.7656 Q636.2688,266.7656 637.0266,266 Q637.7844,265.2344 638.1281,263.5781 L639.4563,264.1719 Q639.1281,265.5781 638.2297,266.4688 Q637.3313,267.3594 635.1281,267.3594 Z " fill="#000000"/><text fill="#000000" font-family="sans-serif" font-size="14" lengthAdjust="spacing" textLength="110" x="651.45" y="268.4839">UGameplayAbility</text><line style="stroke:#181818;stroke-width:0.5;" x1="618.5" x2="767.5" y1="278" y2="278"/><line style="stroke:#181818;stroke-width:0.5;" x1="618.5" x2="767.5" y1="286" y2="286"/><polygon fill="#FFFF44" points="628.5,296.0601,632.5,300.0601,628.5,304.0601,624.5,300.0601" style="stroke:#B38D22;stroke-width:1.0;"/><text fill="#000000" font-family="sans-serif" font-size="14" lengthAdjust="spacing" textLength="125" x="637.5" y="306.0439">void OnGiveAbility()</text><polygon fill="#FFFF44" points="628.5,315.1802,632.5,319.1802,628.5,323.1802,624.5,319.1802" style="stroke:#B38D22;stroke-width:1.0;"/><text fill="#000000" font-family="sans-serif" font-size="14" lengthAdjust="spacing" textLength="102" x="637.5" y="325.1641">void EndAbility()</text></g><!--class EWarriorAbilityActivationPolicy--><g id="elem_EWarriorAbilityActivationPolicy"><rect codeLine="23" fill="#F1F1F1" height="86.2402" id="EWarriorAbilityActivationPolicy" rx="2.5" ry="2.5" style="stroke:#181818;stroke-width:0.5;" width="223" x="1085.5" y="246"/><ellipse cx="1100.5" cy="262" fill="#EB937F" rx="11" ry="11" style="stroke:#181818;stroke-width:1.0;"/><path d="M1097.0313,256.2813 L1097.0313,255.875 L1104.5469,255.875 L1105.2656,258.1406 L1104.0938,258.5938 Q1103.4063,257.2656 1102.8125,256.7734 Q1102.2188,256.2813 1101.4844,256.2813 L1099.625,256.2813 Q1099.625,256.2813 1099.7578,256.4141 Q1099.8906,256.5469 1099.8906,256.8125 L1099.8906,260.9219 L1100.9531,260.9219 Q1101.6094,260.9219 1101.9141,260.5938 Q1102.2188,260.2656 1102.2188,259.5938 L1102.2188,259.2031 L1103.6094,259.2031 L1103.6094,263.1094 L1102.2188,263.1094 L1102.2188,262.8438 Q1102.2188,262.125 1101.9141,261.7266 Q1101.6094,261.3281 1100.9531,261.3281 L1100.0313,261.3281 L1100.0313,266.2969 Q1100.0313,266.5625 1100.1953,266.6953 Q1100.3594,266.8281 1100.3594,266.8281 L1101.3438,266.8281 Q1102.3438,266.8281 1103.0391,266.2656 Q1103.7344,265.7031 1104.25,264.1875 L1105.4688,264.6406 L1104.7344,267.2344 L1096.9688,267.2344 L1096.9688,266.8281 L1097.3594,266.8281 Q1097.7031,266.8281 1097.8359,266.6953 Q1097.9688,266.5625 1097.9688,266.2969 L1097.9688,256.8125 Q1097.9688,256.5469 1097.8359,256.4141 Q1097.7031,256.2813 1097.3594,256.2813 L1097.0313,256.2813 Z " fill="#000000"/><text fill="#000000" font-family="sans-serif" font-size="14" lengthAdjust="spacing" textLength="191" x="1114.5" y="268.4839">EWarriorAbilityActivationPolicy</text><line style="stroke:#181818;stroke-width:0.5;" x1="1086.5" x2="1307.5" y1="278" y2="278"/><text fill="#000000" font-family="sans-serif" font-size="14" lengthAdjust="spacing" textLength="85" x="1091.5" y="298.0439">OnTriggered,</text><text fill="#000000" font-family="sans-serif" font-size="14" lengthAdjust="spacing" textLength="60" x="1091.5" y="317.1641">OnGiven,</text><line style="stroke:#181818;stroke-width:0.5;" x1="1086.5" x2="1307.5" y1="324.2402" y2="324.2402"/></g><!--class UWarriorGameplayAbility--><g id="elem_UWarriorGameplayAbility"><rect codeLine="28" fill="#F1F1F1" height="67.1201" id="UWarriorGameplayAbility" rx="2.5" ry="2.5" style="stroke:#181818;stroke-width:0.5;" width="356" x="1019" y="72.5"/><ellipse cx="1114.25" cy="88.5" fill="#ADD1B2" rx="11" ry="11" style="stroke:#181818;stroke-width:1.0;"/><path d="M1112.8281,93.8594 Q1110.9688,93.8594 1109.875,92.4688 Q1108.7813,91.0781 1108.7813,88.0938 Q1108.7813,85.5625 1109.9453,83.9063 Q1111.1094,82.25 1113.0938,82.25 Q1114.5625,82.25 1115.0313,82.375 Q1115.5,82.5781 1115.5,82.5781 Q1115.5,82.5781 1115.5,82.5078 Q1115.5,82.4375 1116.1094,81.5156 L1117.1563,85.1719 L1115.8281,85.5781 Q1115.3594,84.0313 1114.6953,83.3672 Q1114.0313,82.7031 1112.9688,82.7031 Q1112.5781,82.7031 1111.8125,84.2344 Q1111.0469,85.7656 1111.0469,88.0156 Q1111.0469,90.4844 1111.7109,91.875 Q1112.375,93.2656 1112.9063,93.2656 Q1113.9688,93.2656 1114.7266,92.5 Q1115.4844,91.7344 1115.8281,90.0781 L1117.1563,90.6719 Q1116.8281,92.0781 1115.9297,92.9688 Q1115.0313,93.8594 1112.8281,93.8594 Z " fill="#000000"/><text fill="#000000" font-family="sans-serif" font-size="14" lengthAdjust="spacing" textLength="157" x="1134.75" y="94.9839">UWarriorGameplayAbility</text><line style="stroke:#181818;stroke-width:0.5;" x1="1020" x2="1374" y1="104.5" y2="104.5"/><polygon fill="none" points="1030,114.5601,1034,118.5601,1030,122.5601,1026,118.5601" style="stroke:#B38D22;stroke-width:1.0;"/><text fill="#000000" font-family="sans-serif" font-size="14" lengthAdjust="spacing" textLength="330" x="1039" y="124.5439">EWarriorAbilityActivationPolicy AbilityActivationPolicy</text><line style="stroke:#181818;stroke-width:0.5;" x1="1020" x2="1374" y1="131.6201" y2="131.6201"/></g><!--class AWarriorBaseCharacter--><g id="elem_AWarriorBaseCharacter"><rect codeLine="36" fill="#F1F1F1" height="124.4805" id="AWarriorBaseCharacter" rx="2.5" ry="2.5" style="stroke:#181818;stroke-width:0.5;" width="483" x="22.5" y="44"/><ellipse cx="184.25" cy="60" fill="#ADD1B2" rx="11" ry="11" style="stroke:#181818;stroke-width:1.0;"/><path d="M182.8281,65.3594 Q180.9688,65.3594 179.875,63.9688 Q178.7813,62.5781 178.7813,59.5938 Q178.7813,57.0625 179.9453,55.4063 Q181.1094,53.75 183.0938,53.75 Q184.5625,53.75 185.0313,53.875 Q185.5,54.0781 185.5,54.0781 Q185.5,54.0781 185.5,54.0078 Q185.5,53.9375 186.1094,53.0156 L187.1563,56.6719 L185.8281,57.0781 Q185.3594,55.5313 184.6953,54.8672 Q184.0313,54.2031 182.9688,54.2031 Q182.5781,54.2031 181.8125,55.7344 Q181.0469,57.2656 181.0469,59.5156 Q181.0469,61.9844 181.7109,63.375 Q182.375,64.7656 182.9063,64.7656 Q183.9688,64.7656 184.7266,64 Q185.4844,63.2344 185.8281,61.5781 L187.1563,62.1719 Q186.8281,63.5781 185.9297,64.4688 Q185.0313,65.3594 182.8281,65.3594 Z " fill="#000000"/><text fill="#000000" font-family="sans-serif" font-size="14" lengthAdjust="spacing" textLength="151" x="204.75" y="66.4839">AWarriorBaseCharacter</text><line style="stroke:#181818;stroke-width:0.5;" x1="23.5" x2="504.5" y1="76" y2="76"/><ellipse cx="33.5" cy="91.0601" fill="#84BE84" rx="3" ry="3" style="stroke:#038048;stroke-width:1.0;"/><text fill="#000000" font-family="sans-serif" font-size="14" lengthAdjust="spacing" textLength="457" x="42.5" y="96.0439">UWarriorAbilitySystemComponent* GetWarriorAbilitySystemComponent()</text><ellipse cx="33.5" cy="110.1802" fill="#84BE84" rx="3" ry="3" style="stroke:#038048;stroke-width:1.0;"/><text fill="#000000" font-family="sans-serif" font-size="14" lengthAdjust="spacing" textLength="293" x="42.5" y="115.1641">UWarriorAttributeSet* GetWarriorAttributeSet()</text><line style="stroke:#181818;stroke-width:0.5;" x1="23.5" x2="504.5" y1="122.2402" y2="122.2402"/><polygon fill="none" points="33.5,132.3003,37.5,136.3003,33.5,140.3003,29.5,136.3003" style="stroke:#B38D22;stroke-width:1.0;"/><text fill="#000000" font-family="sans-serif" font-size="14" lengthAdjust="spacing" textLength="424" x="42.5" y="142.2842">UWarriorAbilitySystemComponent* WarriorAbilitySystemComponent</text><polygon fill="none" points="33.5,151.4204,37.5,155.4204,33.5,159.4204,29.5,155.4204" style="stroke:#B38D22;stroke-width:1.0;"/><text fill="#000000" font-family="sans-serif" font-size="14" lengthAdjust="spacing" textLength="260" x="42.5" y="161.4043">UWarriorAttributeSet* WarriorAttributeSet</text></g><!--reverse link APawn to ACharacter--><g id="link_APawn_ACharacter"><path d="M825.3491,333.3955 C809.4491,345.2955 804.83,347.19 786,356 C730.08,382.15 660.69,398.15 614.08,406.77 " fill="none" id="APawn-backto-ACharacter" style="stroke:#181818;stroke-width:1.0;"/><polygon fill="none" points="839.76,322.61,821.754,328.5919,828.9443,338.1991,839.76,322.61" style="stroke:#181818;stroke-width:1.0;"/></g><!--link UWarriorGameplayAbility to UGameplayAbility--><g id="link_UWarriorGameplayAbility_UGameplayAbility"><path codeLine="46" d="M1010.8,127.53 C937.61,141.01 854.82,163.28 786,200 C764.62,211.41 757.1005,216.1083 741.1405,232.6183 " fill="none" id="UWarriorGameplayAbility-to-UGameplayAbility" style="stroke:#181818;stroke-width:1.0;"/><polygon fill="none" points="728.63,245.56,745.4544,236.7885,736.8266,228.4482,728.63,245.56" style="stroke:#181818;stroke-width:1.0;"/></g><!--link UWarriorGameplayAbility to EWarriorAbilityActivationPolicy--><g id="link_UWarriorGameplayAbility_EWarriorAbilityActivationPolicy"><path codeLine="47" d="M1376,119 C1449.72,119 1347.8615,192.4769 1270.2815,242.5369 " fill="none" id="UWarriorGameplayAbility-to-EWarriorAbilityActivationPolicy" style="stroke:#181818;stroke-width:1.0;"/><polygon fill="#181818" points="1265.24,245.79,1274.9711,244.2713,1269.4413,243.079,1270.6335,237.5493,1265.24,245.79" style="stroke:#181818;stroke-width:1.0;"/></g><!--link AWarriorBaseCharacter to ACharacter--><g id="link_AWarriorBaseCharacter_ACharacter"><path codeLine="49" d="M194.6,168.23 C187.04,178.07 180.48,188.74 176,200 C150.35,264.42 130.83,303.4 176,356 C218.4,405.37 396.3214,413.6491 491.6414,414.8191 " fill="none" id="AWarriorBaseCharacter-to-ACharacter" style="stroke:#181818;stroke-width:1.0;"/><polygon fill="none" points="509.64,415.04,491.715,408.8195,491.5677,420.8186,509.64,415.04" style="stroke:#181818;stroke-width:1.0;"/></g><!--link AWarriorBaseCharacter to IAbilitySystemInterface--><g id="link_AWarriorBaseCharacter_IAbilitySystemInterface"><path codeLine="50" d="M305.81,168.03 C325.85,197.28 338.8656,216.2914 355.4956,240.5614 " fill="none" id="AWarriorBaseCharacter-to-IAbilitySystemInterface" style="stroke:#181818;stroke-width:1.0;stroke-dasharray:7.0,7.0;"/><polygon fill="none" points="365.67,255.41,360.4451,237.1699,350.5461,243.9528,365.67,255.41" style="stroke:#181818;stroke-width:1.0;"/></g><!--SRC=[ZLHDRy8m3BttLrZQWNtGSkU0L112dAZ4q8uef5uNhKsgDB1L7VzzBOGscLAwg2S_-_azssfEw2T947RBC5f3vNbGFvgIee0m8b-ykWIQzm8dmMA8H55W_SNpyl7f0fwjeiK7aOGgb83V2dciUQ3IQOpNs3kX2Elmm5AcocrPACpMRTnikRDo5YBB1KUkdc65oWsvHErM9CCy9QKkwJeyN4rj-8gTKAEQmO2NFBQnclqy6UNcx4OJpxi5B6LGmLKBycC6opSY9HDIfuHKiHDHJF18f8oMXlaDVvKiIL1YF3Q2ZL0-TdZKn7Ui3lNkYJiSMmPDv-tsRwRrLUZESr9WTo3MecrjhdtVpJ2MPf0f9TdXg72BDeKHDmhtUsDOGuBkmYuUIuiZw1XpEwfcn5Qde6VTuFi_i-j11d-l_dyCqsdVUVZ-p5vyC71GdjSQ2DmNS56hvNP_Zi6o8EZAUluYlm00]--></g></svg>